
<!-- Generator: Adobe Illustrator 19.1.0, SVG Export Plug-In . SVG Version: 6.00 Build 0)  -->
<svg version="1.1" id="Arrow_1_" xmlns="http://www.w3.org/2000/svg" xmlns:xlink="http://www.w3.org/1999/xlink" x="0px" y="0px"
	 viewBox="-47 170.9 500 500" style="enable-background:new -47 170.9 500 500;" xml:space="preserve">
<style type="text/css">
	.st0{fill:#966b9b;}
	.st1{fill:#F4F4F4;}
</style>
<g>
	<g id="Shape_163_copy_5_8_">
		<circle class="st0" cx="203" cy="420.9" r="250"/>
	</g>
	<g id="Shape_7_copy_4_">
		<path class="st1" d="M87.4,535h55.7V340.1H87.4L87.4,535L87.4,535z M300.1,351.2c-20.8-11.6-51.3-12.6-73.4-2.6v-8.5H171V535h55.7
			c0,0,0-120.1,0-124.7c0-11.6,13.7-15.5,29.2-15.5s26.5,12.6,26.6,21.9V535h55.7V416.6C338.1,391,322.1,363.5,300.1,351.2z
			 M115.2,249.5c-19.3,0-34.9,15.6-34.9,34.8S96,319,115.2,319s34.9-15.6,34.9-34.8C150.1,265.1,134.5,249.5,115.2,249.5z"/>
	</g>
</g>
</svg>

